<svg xmlns="http://www.w3.org/2000/svg" width="1365" height="768" viewBox="0 0 1365 768">
<g>
<path d="M 339.21 559.00 L 326.11 581.50 L 304.94 581.77 C287.80,581.99 283.87,581.79 284.27,580.73 C285.94,576.38 380.68,419.91 383.26,417.24 C388.05,412.28 394.34,409.65 401.44,409.61 C408.61,409.58 413.69,411.90 419.09,417.67 C421.07,419.77 435.43,442.88 451.00,469.00 C466.57,495.12 488.02,530.99 498.66,548.71 C509.30,566.42 518.00,581.16 518.00,581.46 C518.00,581.75 508.62,582.00 497.15,582.00 L 476.30 582.00 L 467.77 567.75 C463.08,559.91 458.02,551.36 456.53,548.75 L 453.81 544.00 L 409.90 544.00 C385.76,544.00 366.00,543.63 366.00,543.18 C366.00,542.33 381.50,515.42 383.24,513.25 C384.00,512.31 390.45,512.00 409.24,512.00 C433.12,512.00 434.21,511.92 433.75,510.14 C433.16,507.89 401.71,454.02 401.00,454.04 C400.47,454.06 388.59,474.13 358.99,525.00 C355.31,531.33 346.41,546.62 339.21,559.00 ZM 937.56 112.10 C938.47,113.57 936.15,112.98 923.00,108.41 C894.00,98.34 853.79,90.33 807.50,85.41 C783.42,82.84 735.81,83.04 709.50,85.81 C686.57,88.22 680.30,88.64 679.48,87.81 C677.83,86.16 704.23,61.84 726.47,44.52 L 736.43 36.76 L 741.97 37.29 C751.03,38.15 785.07,45.84 805.22,51.59 C833.39,59.62 857.44,68.95 882.50,81.55 C904.33,92.53 936.50,110.38 937.56,112.10 ZM 560.50 581.88 C549.45,584.95 539.29,580.30 534.89,570.17 C532.47,564.61 532.53,559.64 535.08,554.02 C537.63,548.38 539.53,546.28 544.25,543.87 C550.37,540.75 555.95,540.44 561.56,542.92 C567.99,545.77 569.82,547.52 572.63,553.50 C575.24,559.05 575.53,562.55 573.88,568.50 C572.43,573.71 565.71,580.43 560.50,581.88 ZM 526.75 673.03 C521.82,675.27 518.73,675.38 514.38,673.47 C501.51,667.82 500.72,647.27 513.13,640.93 C518.57,638.16 524.10,638.76 528.07,642.57 L 530.92 645.30 L 531.21 635.90 L 531.50 626.50 L 540.00 625.89 L 540.00 645.74 C540.00,658.55 540.38,665.98 541.07,666.67 C541.66,667.26 542.00,669.27 541.82,671.12 C541.38,675.78 538.06,676.21 533.99,672.15 C532.35,670.50 531.00,669.59 531.00,670.13 C531.00,670.66 529.09,671.97 526.75,673.03 ZM 614.00 659.26 L 614.00 674.00 L 609.58 674.00 C609.45,674.00 609.32,674.00 609.19,674.00 C607.87,674.00 606.89,674.01 606.17,673.58 C604.14,672.36 604.18,667.69 604.32,649.83 L 604.34 648.00 L 604.50 627.50 L 616.68 627.50 C627.47,627.50 629.18,627.74 631.68,629.59 C641.43,636.82 641.49,649.14 631.82,656.30 C629.89,657.73 626.98,658.43 621.57,658.78 ZM 475.03 672.75 C466.96,676.83 456.94,674.66 451.93,667.74 C449.38,664.23 449.00,662.82 449.00,657.00 C449.00,651.20 449.39,649.77 451.90,646.30 C456.89,639.41 466.36,637.16 474.60,640.91 C480.71,643.68 483.40,648.09 483.77,655.98 C484.17,664.40 481.53,669.47 475.03,672.75 ZM 815.03 672.75 C805.91,677.36 795.16,673.89 790.41,664.80 C788.23,660.62 788.65,652.19 791.28,647.50 C795.20,640.50 805.26,637.30 813.48,640.44 C827.64,645.85 828.60,665.89 815.03,672.75 ZM 693.58 673.10 C688.65,675.34 683.70,675.44 679.01,673.41 C671.63,670.21 668.00,664.80 668.00,657.00 C668.00,649.10 671.68,643.70 679.23,640.55 C684.37,638.40 688.81,638.61 694.03,641.25 C707.18,647.89 706.90,667.05 693.58,673.10 ZM 280.61 662.50 L 276.41 673.50 L 271.70 673.81 L 266.98 674.11 L 270.06 665.81 C271.75,661.24 275.41,651.20 278.18,643.50 C280.96,635.80 283.70,628.92 284.28,628.20 C284.91,627.41 286.93,627.02 289.40,627.20 L 293.48 627.50 L 297.19 637.50 C306.61,662.81 310.00,672.25 310.00,673.09 C310.00,673.59 308.04,674.00 305.64,674.00 C301.34,674.00 301.24,673.92 299.50,669.25 C298.53,666.64 297.41,664.13 297.00,663.68 C296.60,663.24 292.74,662.79 288.44,662.68 ZM 902.30 673.93 C896.82,675.46 892.16,675.07 883.83,672.39 C877.59,670.39 876.39,668.88 878.00,665.00 C879.46,661.46 880.35,661.35 886.14,663.98 C891.02,666.19 899.94,666.66 901.80,664.80 C903.37,663.23 903.34,659.51 901.75,658.26 C901.06,657.71 897.35,656.25 893.50,655.00 C883.31,651.69 881.02,650.28 879.35,646.31 C877.26,641.29 878.37,636.00 882.32,632.19 C887.94,626.77 895.36,625.54 904.26,628.57 C910.56,630.72 911.53,632.07 909.54,635.93 C908.66,637.62 907.78,639.00 907.58,639.00 C907.38,639.00 905.26,638.11 902.86,637.02 C895.25,633.57 888.00,635.23 888.00,640.43 C888.00,643.58 889.41,644.54 896.96,646.49 C909.78,649.81 913.45,653.39 912.75,661.92 C912.38,666.42 911.78,667.80 909.21,670.11 C907.50,671.63 904.40,673.35 902.30,673.93 ZM 749.77 673.45 C744.90,675.49 740.41,675.38 735.50,673.11 C726.59,669.00 722.62,659.41 726.07,650.32 C729.33,641.71 740.84,636.71 749.68,640.07 C755.72,642.35 761.00,650.01 761.00,656.46 L 761.00 660.00 L 747.50 660.00 C739.91,660.00 734.00,660.40 734.00,660.92 C734.00,661.43 735.16,663.23 736.59,664.92 C739.79,668.73 745.26,669.15 749.37,665.92 C751.33,664.38 752.79,664.01 755.01,664.50 C756.65,664.86 758.00,665.72 758.00,666.41 C758.00,668.25 753.98,671.69 749.77,673.45 ZM 945.35 671.95 C938.24,676.15 928.10,675.26 922.43,669.93 C916.63,664.49 915.65,653.83 920.31,646.82 C923.06,642.68 930.16,639.00 935.40,639.00 C944.79,639.00 953.00,646.85 953.00,655.84 L 953.00 660.00 L 940.00 660.00 C927.83,660.00 927.00,660.12 927.00,661.93 C927.00,664.66 931.68,668.00 935.50,668.00 C937.28,668.00 939.87,667.10 941.27,666.00 C944.17,663.72 944.87,663.62 948.48,664.99 C950.64,665.81 950.91,666.30 950.07,667.88 C949.51,668.92 947.39,670.75 945.35,671.95 ZM 571.77 673.45 C563.17,677.05 552.77,673.20 548.40,664.80 C546.50,661.14 546.63,652.58 548.66,648.31 C552.51,640.19 564.34,636.73 572.99,641.18 C575.46,642.46 578.44,644.94 579.61,646.70 C581.78,649.98 583.50,657.39 582.46,659.06 C582.14,659.58 576.06,660.00 568.94,660.00 C554.68,660.00 553.52,660.61 558.45,665.55 C561.62,668.71 567.60,668.89 571.37,665.92 C573.33,664.38 574.79,664.01 577.01,664.50 C578.65,664.86 580.00,665.72 580.00,666.41 C580.00,668.25 575.98,671.69 571.77,673.45 ZM 373.77 673.45 C365.17,677.05 354.77,673.20 350.40,664.80 C348.23,660.61 348.65,652.18 351.27,647.58 C354.01,642.75 360.65,639.00 366.45,639.00 C371.77,639.00 378.90,642.62 381.61,646.70 C383.78,649.98 385.50,657.39 384.46,659.06 C384.14,659.58 378.06,660.00 370.94,660.00 C356.68,660.00 355.52,660.61 360.45,665.55 C363.58,668.67 369.60,668.89 373.27,666.01 C376.01,663.85 382.00,664.15 382.00,666.45 C382.00,668.26 377.94,671.71 373.77,673.45 ZM 1015.70 672.57 C1006.36,677.92 996.00,672.98 996.00,663.18 C996.00,656.49 1002.90,652.46 1013.11,653.20 C1019.60,653.67 1020.52,652.61 1017.44,648.22 C1016.20,646.45 1014.93,646.01 1011.19,646.04 C1008.61,646.05 1005.38,646.71 1004.00,647.50 C1000.64,649.42 1000.50,649.39 999.15,646.43 C997.59,643.00 998.17,642.32 1004.22,640.53 C1010.83,638.56 1014.95,638.60 1020.10,640.66 C1025.75,642.92 1027.95,647.81 1027.98,658.19 C1027.99,662.42 1028.45,666.16 1029.00,666.50 C1029.55,666.84 1030.00,668.64 1030.00,670.49 C1030.00,675.64 1024.98,676.29 1021.12,671.64 C1020.06,670.37 1019.34,670.49 1015.70,672.57 ZM 967.73 663.82 L 968.29 674.00 L 959.00 674.00 L 959.00 640.00 L 963.00 640.00 C966.67,640.00 967.00,640.22 967.00,642.67 L 967.00 645.35 L 969.25 643.24 C973.86,638.92 981.69,637.69 985.88,640.63 C989.92,643.46 991.00,647.87 991.00,661.47 L 991.00 674.00 L 982.00 674.00 L 982.00 662.72 C982.00,654.13 981.63,650.92 980.44,649.22 C978.17,645.98 974.41,646.39 970.48,650.32 L 967.17 653.63 ZM 336.77 673.45 C331.90,675.49 327.41,675.38 322.50,673.11 C315.22,669.75 311.99,664.53 312.02,656.18 C312.06,643.37 326.20,634.98 337.79,640.89 C342.23,643.16 345.44,646.48 344.56,647.90 C343.34,649.88 337.05,650.36 335.13,648.62 C332.36,646.11 326.37,646.54 323.45,649.45 C318.02,654.89 321.97,667.00 329.18,667.00 C330.84,667.00 333.44,666.26 334.96,665.36 C338.11,663.50 345.00,664.19 345.00,666.37 C345.00,668.25 341.01,671.68 336.77,673.45 ZM 850.76 673.02 C845.78,675.28 841.01,675.45 835.68,673.55 C829.82,671.46 827.89,669.33 829.23,666.40 C830.55,663.50 830.59,663.50 835.50,666.00 C840.37,668.48 846.80,668.68 847.69,666.36 C848.72,663.68 846.84,661.97 840.50,659.84 C832.71,657.23 830.00,654.71 830.00,650.05 C830.00,640.80 841.13,636.15 851.75,640.97 C856.21,643.00 856.86,644.44 854.68,647.43 C853.43,649.14 853.18,649.14 850.12,647.56 C848.18,646.56 845.21,646.01 842.69,646.20 C839.01,646.46 838.50,646.80 838.50,648.91 C838.50,651.00 839.42,651.62 845.50,653.65 C853.04,656.17 857.00,659.56 857.00,663.49 C857.00,668.15 855.10,671.05 850.76,673.02 ZM 1059.50 673.11 C1054.42,675.46 1049.59,675.45 1044.42,673.10 C1037.05,669.76 1033.15,662.14 1034.43,653.60 C1036.49,639.85 1055.42,634.06 1064.85,644.30 C1067.69,647.38 1067.08,648.71 1062.42,649.58 C1059.89,650.06 1058.43,649.79 1057.13,648.62 C1051.98,643.96 1043.00,649.28 1043.00,657.00 C1043.00,660.26 1043.63,661.78 1045.92,664.08 C1049.21,667.36 1054.85,668.09 1057.00,665.50 C1058.45,663.75 1061.74,663.57 1065.58,665.03 L 1068.29 666.06 L 1065.90 668.66 C1064.58,670.09 1061.70,672.09 1059.50,673.11 ZM 782.25 673.95 C777.53,675.26 775.04,675.23 772.50,673.85 C768.46,671.63 768.00,670.00 768.00,657.81 L 768.00 646.00 L 765.50 646.00 C763.40,646.00 763.00,645.53 763.00,643.07 C763.00,640.79 763.50,640.07 765.25,639.82 C767.21,639.54 767.54,638.82 767.80,634.25 L 768.10 629.00 L 777.15 629.00 L 776.58 639.50 L 780.35 639.81 C783.93,640.11 784.10,640.29 783.81,643.31 C783.52,646.25 783.24,646.48 780.21,646.24 L 776.93 645.98 L 777.50 665.50 L 780.99 665.83 C784.80,666.19 785.96,667.33 785.98,670.70 C786.00,672.40 785.14,673.14 782.25,673.95 ZM 435.08 671.85 C434.17,673.55 433.01,674.00 429.52,674.00 C427.10,674.00 424.88,673.62 424.59,673.15 C423.54,671.44 413.01,642.47 413.01,641.25 C413.00,640.44 414.52,640.00 417.29,640.00 L 421.58 640.00 L 425.43 652.47 C427.55,659.33 429.63,664.73 430.06,664.46 C430.49,664.20 432.53,658.58 434.59,651.99 L 438.33 640.00 L 446.89 640.00 L 445.02 645.25 C438.32,663.99 436.09,669.96 435.08,671.85 ZM 713.39 684.91 C709.06,688.32 699.00,687.01 699.00,683.05 C699.00,680.53 701.07,679.00 704.50,679.00 C709.79,679.00 710.00,678.22 710.00,658.30 L 710.00 640.00 L 719.00 640.00 L 719.00 658.55 C719.00,678.65 718.53,680.87 713.39,684.91 ZM 399.00 663.02 L 399.00 674.00 L 390.00 674.00 L 390.00 640.00 L 394.00 640.00 C397.83,640.00 398.00,640.14 398.00,643.19 L 398.00 646.37 L 400.75 643.81 C403.99,640.78 407.24,639.00 409.49,639.00 C410.78,639.00 411.05,639.87 410.81,643.21 C410.53,647.07 410.23,647.48 407.28,648.08 C405.50,648.44 402.91,649.48 401.53,650.39 C399.08,651.99 399.00,652.39 399.00,663.02 ZM 654.00 663.07 L 654.00 674.00 L 645.00 674.00 L 645.00 640.00 L 649.00 640.00 C652.84,640.00 653.00,640.13 653.03,643.25 C653.06,646.31 653.15,646.39 654.52,644.58 C656.49,641.97 661.12,639.01 663.25,639.01 C664.66,639.00 665.00,639.88 665.00,643.50 C665.00,647.79 664.86,648.00 662.13,648.00 C660.56,648.00 658.08,648.93 656.63,650.07 C654.08,652.09 654.00,652.46 654.00,663.07 ZM 517.36 665.54 C520.33,667.62 525.29,667.34 528.37,664.93 C530.63,663.15 531.00,662.10 531.00,657.47 C531.00,650.83 527.93,647.00 522.59,647.00 C513.37,647.00 509.66,660.15 517.36,665.54 ZM 679.92 664.08 C685.06,669.21 692.74,666.85 694.57,659.59 C696.06,653.65 691.80,647.00 686.51,647.00 C681.79,647.00 680.14,647.84 678.46,651.07 C676.03,655.78 676.58,660.74 679.92,664.08 ZM 800.48 663.80 C807.56,672.21 819.74,662.14 814.58,652.15 C812.69,648.51 810.24,647.00 806.18,647.00 C801.45,647.00 798.82,649.87 798.26,655.61 C797.85,659.94 798.14,661.01 800.48,663.80 ZM 461.06 665.25 C467.00,670.06 475.00,664.97 475.00,656.38 C475.00,648.85 468.30,644.63 461.85,648.08 C456.82,650.77 456.33,661.41 461.06,665.25 ZM 614.00 635.00 L 614.00 650.00 L 620.44 650.00 C625.97,650.00 627.11,649.68 628.44,647.78 C630.74,644.49 630.38,640.29 627.55,637.45 C625.53,635.44 624.10,635.00 619.55,635.00 ZM 1005.65 666.17 C1007.95,668.71 1014.39,668.61 1017.00,666.00 C1019.39,663.61 1019.63,659.45 1017.42,658.61 C1013.96,657.28 1007.99,658.01 1006.00,660.00 C1003.57,662.43 1003.49,663.78 1005.65,666.17 ZM 283.00 654.77 C283.00,655.61 284.94,656.00 289.11,656.00 C293.57,656.00 295.09,655.66 294.75,654.75 C294.50,654.06 293.27,650.35 292.02,646.50 C290.77,642.65 289.43,639.14 289.03,638.71 C288.34,637.95 283.00,652.18 283.00,654.77 ZM 734.52 651.75 C733.88,653.97 734.00,654.00 742.93,654.00 C747.92,654.00 752.00,653.75 752.00,653.45 C752.00,651.88 748.86,647.16 747.46,646.62 C742.11,644.57 735.89,647.04 734.52,651.75 ZM 927.00 652.04 C927.00,653.83 927.72,654.00 935.50,654.00 C945.00,654.00 946.09,653.00 941.55,648.45 C936.94,643.85 927.00,646.30 927.00,652.04 ZM 358.00 652.07 C358.00,653.82 358.77,654.00 366.50,654.00 C373.80,654.00 375.00,653.76 375.00,652.31 C375.00,649.19 370.94,646.00 366.96,646.00 C362.69,646.00 358.00,649.18 358.00,652.07 ZM 556.00 652.45 C556.00,653.73 557.50,654.00 564.50,654.00 C571.80,654.00 573.00,653.76 573.00,652.31 C573.00,649.12 568.94,646.00 564.78,646.00 C560.66,646.00 556.00,649.43 556.00,652.45 ZM 719.00 626.00 L 719.00 635.00 L 710.00 635.00 L 710.00 626.00 Z" fill="rgb(9,80,143)"/>
<path d="M 666.54 253.56 C662.71,256.00 658.85,258.00 657.96,258.00 C655.88,258.00 643.08,248.48 630.90,237.86 C625.62,233.26 616.91,225.71 611.56,221.09 C606.21,216.46 601.41,211.57 600.89,210.22 C599.88,207.56 603.67,198.29 612.83,181.00 C615.31,176.32 618.39,170.48 619.68,168.00 C620.97,165.52 627.31,155.63 633.77,146.02 L 645.50 128.53 L 653.50 126.28 C688.43,116.41 739.71,110.02 784.00,110.02 C825.20,110.02 879.50,116.33 914.00,125.15 C933.69,130.17 986.74,147.31 989.75,149.62 C992.93,152.06 989.40,152.74 970.13,153.41 C920.32,155.12 884.66,160.37 839.50,172.64 C824.22,176.79 788.14,187.98 786.50,189.08 C785.95,189.45 784.38,190.09 783.00,190.50 C778.88,191.74 756.33,201.85 743.50,208.21 C730.88,214.47 707.66,227.47 697.50,233.97 C694.20,236.08 687.45,240.35 682.50,243.46 C677.55,246.57 670.37,251.12 666.54,253.56 ZM 639.50 444.50 L 638.50 581.50 L 621.74 581.77 L 604.99 582.05 L 605.50 411.50 L 665.50 411.50 C713.62,411.50 726.59,411.78 731.00,412.90 C753.68,418.67 771.34,437.17 776.56,460.61 C778.86,470.98 778.16,487.81 775.03,497.00 C770.95,508.98 767.77,514.23 759.45,522.70 C753.19,529.09 749.75,531.69 743.92,534.46 C731.20,540.50 726.31,541.06 688.75,540.76 L 655.50 540.50 L 655.23 524.29 L 654.95 508.08 L 722.65 507.50 L 728.53 504.49 C739.02,499.12 744.00,489.50 744.00,474.62 C744.00,461.90 738.76,452.61 728.50,447.16 L 723.50 444.50 ZM 804.10 581.87 C791.66,586.01 778.28,577.39 777.21,564.55 C776.13,551.47 784.70,542.08 797.79,542.02 C812.06,541.96 821.13,554.82 816.86,569.06 C815.50,573.60 808.83,580.29 804.10,581.87 Z" fill="rgb(246,133,24)"/>
<path d="M 961.97 581.58 C955.02,582.82 943.49,583.05 897.66,582.89 C856.75,582.76 841.71,582.40 841.38,581.56 C841.14,580.93 841.07,573.68 841.22,565.46 L 841.50 550.50 L 899.00 550.00 C954.96,549.51 956.62,549.44 961.09,547.38 C963.62,546.21 966.64,543.91 967.80,542.28 C972.61,535.53 972.31,524.60 967.18,519.44 C961.26,513.47 959.70,513.25 919.91,512.73 C879.37,512.20 876.95,511.87 865.00,505.24 C852.76,498.46 843.68,486.37 840.94,473.22 C839.15,464.64 840.33,450.97 843.56,443.00 C850.12,426.78 864.54,415.16 882.59,411.54 C889.34,410.18 898.46,409.99 945.00,410.23 L 999.50 410.50 L 999.77 426.75 C999.93,435.69 999.93,443.10 999.77,443.21 C999.62,443.33 973.85,443.67 942.50,443.96 L 885.50 444.50 L 881.43 447.27 C870.50,454.69 871.64,471.07 883.50,477.00 C888.50,479.50 888.51,479.50 926.00,480.05 C963.09,480.58 963.57,480.62 970.12,483.12 C991.65,491.36 1003.43,505.85 1005.41,526.50 C1007.99,553.50 989.72,576.67 961.97,581.58 ZM 666.54 253.56 C670.37,251.12 677.55,246.57 682.50,243.46 C687.45,240.35 694.20,236.08 697.50,233.97 C707.66,227.47 730.88,214.47 743.50,208.21 C756.33,201.85 778.88,191.74 783.00,190.50 C784.38,190.09 785.95,189.45 786.50,189.08 C787.85,188.18 812.41,180.47 829.61,175.44 C814.30,180.06 798.88,185.46 783.00,191.72 C744.23,207.00 718.68,221.04 657.82,260.50 C654.87,262.41 631.69,281.28 623.62,288.34 C610.47,299.85 593.36,316.79 584.32,327.25 C579.68,332.61 575.45,337.00 574.91,337.00 C573.03,337.00 572.88,334.06 573.92,317.36 C576.10,282.61 581.53,255.03 592.12,225.00 L 592.48 223.99 C596.13,213.65 597.06,211.00 596.32,208.95 C596.05,208.17 595.53,207.48 594.83,206.50 C593.55,204.70 587.95,198.34 582.40,192.36 C566.31,175.06 557.00,163.62 557.00,161.15 C557.00,159.62 557.78,159.27 587.10,147.48 C601.62,141.64 619.58,135.06 627.00,132.87 C651.70,125.55 653.47,125.06 658.50,124.08 C661.25,123.54 668.22,122.19 674.00,121.07 C679.85,119.94 685.68,118.89 691.48,117.93 C677.65,120.29 664.73,123.10 653.50,126.28 L 645.50 128.53 L 633.77 146.02 C627.31,155.63 620.97,165.52 619.68,168.00 C618.39,170.48 615.31,176.32 612.83,181.00 C603.67,198.29 599.88,207.56 600.89,210.22 C601.41,211.57 606.21,216.46 611.56,221.09 C616.91,225.71 625.62,233.26 630.90,237.86 C643.08,248.48 655.88,258.00 657.96,258.00 C658.85,258.00 662.71,256.00 666.54,253.56 ZM 1044.59 581.53 C1039.16,583.14 1036.86,583.24 1032.84,582.03 C1028.11,580.59 1024.01,577.63 1021.23,573.61 C1018.84,570.17 1018.50,568.72 1018.50,562.09 C1018.50,555.45 1018.85,553.99 1021.27,550.42 C1026.73,542.38 1037.12,539.19 1045.62,542.95 C1048.29,544.13 1051.55,546.09 1052.87,547.30 C1058.14,552.14 1060.55,562.76 1057.94,569.68 C1056.14,574.47 1049.99,579.93 1044.59,581.53 ZM 800.50 110.32 C825.33,111.03 850.20,113.43 875.47,117.51 L 875.90 117.58 C851.75,113.82 824.78,111.19 800.50,110.32 ZM 970.13 153.41 C938.70,154.49 910.18,157.40 882.58,162.54 C910.14,157.25 937.01,154.55 970.13,153.41 ZM 924.19 127.95 C936.05,131.25 949.38,135.45 966.75,141.22 C973.02,143.30 978.04,145.00 981.83,146.39 C968.59,141.62 941.92,133.06 924.19,127.95 ZM 989.94 151.75 C987.79,152.67 981.13,153.03 970.13,153.41 C982.01,153.00 987.91,152.58 989.94,151.75 Z" fill="rgb(243,172,99)"/>
<path d="M 0.00 384.00 L 0.00 0.00 L 682.50 0.00 L 1365.00 0.00 L 1365.00 384.00 L 1365.00 768.00 L 682.50 768.00 L 0.00 768.00 L 0.00 384.00 ZM 713.39 684.91 C718.53,680.87 719.00,678.65 719.00,658.55 L 719.00 640.00 L 714.50 640.00 L 710.00 640.00 L 710.00 658.30 C710.00,678.22 709.79,679.00 704.50,679.00 C701.07,679.00 699.00,680.53 699.00,683.05 C699.00,687.01 709.06,688.32 713.39,684.91 ZM 336.77 673.45 C341.01,671.68 345.00,668.25 345.00,666.37 C345.00,664.19 338.11,663.50 334.96,665.36 C333.44,666.26 330.84,667.00 329.18,667.00 C321.97,667.00 318.02,654.89 323.45,649.45 C326.37,646.54 332.36,646.11 335.13,648.62 C337.05,650.36 343.34,649.88 344.56,647.90 C345.44,646.48 342.23,643.16 337.79,640.89 C326.20,634.98 312.06,643.37 312.02,656.18 C311.99,664.53 315.22,669.75 322.50,673.11 C327.41,675.38 331.90,675.49 336.77,673.45 ZM 373.77 673.45 C377.94,671.71 382.00,668.26 382.00,666.45 C382.00,664.15 376.01,663.85 373.27,666.01 C369.60,668.89 363.58,668.67 360.45,665.55 C355.52,660.61 356.68,660.00 370.94,660.00 C378.06,660.00 384.14,659.58 384.46,659.06 C385.50,657.39 383.78,649.98 381.61,646.70 C378.90,642.62 371.77,639.00 366.45,639.00 C360.65,639.00 354.01,642.75 351.27,647.58 C348.65,652.18 348.23,660.61 350.40,664.80 C354.77,673.20 365.17,677.05 373.77,673.45 ZM 475.03 672.75 C481.53,669.47 484.17,664.40 483.77,655.98 C483.40,648.09 480.71,643.68 474.60,640.91 C466.36,637.16 456.89,639.41 451.90,646.30 C449.39,649.77 449.00,651.20 449.00,657.00 C449.00,662.82 449.38,664.23 451.93,667.74 C456.94,674.66 466.96,676.83 475.03,672.75 ZM 526.75 673.03 C529.09,671.97 531.00,670.66 531.00,670.13 C531.00,669.59 532.35,670.50 533.99,672.15 C538.06,676.21 541.38,675.78 541.82,671.12 C542.00,669.27 541.66,667.26 541.07,666.67 C540.38,665.98 540.00,658.55 540.00,645.74 L 540.00 625.89 L 535.75 626.19 L 531.50 626.50 L 531.21 635.90 L 530.92 645.30 L 528.07 642.57 C524.10,638.76 518.57,638.16 513.13,640.93 C500.72,647.27 501.51,667.82 514.38,673.47 C518.73,675.38 521.82,675.27 526.75,673.03 ZM 571.77 673.45 C575.98,671.69 580.00,668.25 580.00,666.41 C580.00,665.72 578.65,664.86 577.01,664.50 C574.79,664.01 573.33,664.38 571.37,665.92 C567.60,668.89 561.62,668.71 558.45,665.55 C553.52,660.61 554.68,660.00 568.94,660.00 C576.06,660.00 582.14,659.58 582.46,659.06 C583.50,657.39 581.78,649.98 579.61,646.70 C578.44,644.94 575.46,642.46 572.99,641.18 C564.34,636.73 552.51,640.19 548.66,648.31 C546.63,652.58 546.50,661.14 548.40,664.80 C552.77,673.20 563.17,677.05 571.77,673.45 ZM 693.58 673.10 C706.90,667.05 707.18,647.89 694.03,641.25 C688.81,638.61 684.37,638.40 679.23,640.55 C671.68,643.70 668.00,649.10 668.00,657.00 C668.00,664.80 671.63,670.21 679.01,673.41 C683.70,675.44 688.65,675.34 693.58,673.10 ZM 749.77 673.45 C753.98,671.69 758.00,668.25 758.00,666.41 C758.00,665.72 756.65,664.86 755.01,664.50 C752.79,664.01 751.33,664.38 749.37,665.92 C745.26,669.15 739.79,668.73 736.59,664.92 C735.16,663.23 734.00,661.43 734.00,660.92 C734.00,660.40 739.91,660.00 747.50,660.00 L 761.00 660.00 L 761.00 656.46 C761.00,650.01 755.72,642.35 749.68,640.07 C740.84,636.71 729.33,641.71 726.07,650.32 C722.62,659.41 726.59,669.00 735.50,673.11 C740.41,675.38 744.90,675.49 749.77,673.45 ZM 782.25 673.95 C785.14,673.14 786.00,672.40 785.98,670.70 C785.96,667.33 784.80,666.19 780.99,665.83 L 777.50 665.50 L 777.21 655.74 L 776.93 645.98 L 780.21 646.24 C783.24,646.48 783.52,646.25 783.81,643.31 C784.10,640.29 783.93,640.11 780.35,639.81 L 776.58 639.50 L 776.86 634.25 L 777.15 629.00 L 772.63 629.00 L 768.10 629.00 L 767.80 634.25 C767.54,638.82 767.21,639.54 765.25,639.82 C763.50,640.07 763.00,640.79 763.00,643.07 C763.00,645.53 763.40,646.00 765.50,646.00 L 768.00 646.00 L 768.00 657.81 C768.00,670.00 768.46,671.63 772.50,673.85 C775.04,675.23 777.53,675.26 782.25,673.95 ZM 815.03 672.75 C828.60,665.89 827.64,645.85 813.48,640.44 C805.26,637.30 795.20,640.50 791.28,647.50 C788.65,652.19 788.23,660.62 790.41,664.80 C795.16,673.89 805.91,677.36 815.03,672.75 ZM 850.76 673.02 C855.10,671.05 857.00,668.15 857.00,663.49 C857.00,659.56 853.04,656.17 845.50,653.65 C839.42,651.62 838.50,651.00 838.50,648.91 C838.50,646.80 839.01,646.46 842.69,646.20 C845.21,646.01 848.18,646.56 850.12,647.56 C853.18,649.14 853.43,649.14 854.68,647.43 C856.86,644.44 856.21,643.00 851.75,640.97 C841.13,636.15 830.00,640.80 830.00,650.05 C830.00,654.71 832.71,657.23 840.50,659.84 C846.84,661.97 848.72,663.68 847.69,666.36 C846.80,668.68 840.37,668.48 835.50,666.00 C830.59,663.50 830.55,663.50 829.23,666.40 C827.89,669.33 829.82,671.46 835.68,673.55 C841.01,675.45 845.78,675.28 850.76,673.02 ZM 902.30 673.93 C904.40,673.35 907.50,671.63 909.21,670.11 C911.78,667.80 912.38,666.42 912.75,661.92 C913.45,653.39 909.78,649.81 896.96,646.49 C889.41,644.54 888.00,643.58 888.00,640.43 C888.00,635.23 895.25,633.57 902.86,637.02 C905.26,638.11 907.38,639.00 907.58,639.00 C907.78,639.00 908.66,637.62 909.54,635.93 C911.53,632.07 910.56,630.72 904.26,628.57 C895.36,625.54 887.94,626.77 882.32,632.19 C878.37,636.00 877.26,641.29 879.35,646.31 C881.02,650.28 883.31,651.69 893.50,655.00 C897.35,656.25 901.06,657.71 901.75,658.26 C903.34,659.51 903.37,663.23 901.80,664.80 C899.94,666.66 891.02,666.19 886.14,663.98 C880.35,661.35 879.46,661.46 878.00,665.00 C876.39,668.88 877.59,670.39 883.83,672.39 C892.16,675.07 896.82,675.46 902.30,673.93 ZM 945.35 671.95 C947.39,670.75 949.51,668.92 950.07,667.88 C950.91,666.30 950.64,665.81 948.48,664.99 C944.87,663.62 944.17,663.72 941.27,666.00 C939.87,667.10 937.28,668.00 935.50,668.00 C931.68,668.00 927.00,664.66 927.00,661.93 C927.00,660.12 927.83,660.00 940.00,660.00 L 953.00 660.00 L 953.00 655.84 C953.00,646.85 944.79,639.00 935.40,639.00 C930.16,639.00 923.06,642.68 920.31,646.82 C915.65,653.83 916.63,664.49 922.43,669.93 C928.10,675.26 938.24,676.15 945.35,671.95 ZM 1015.70 672.57 C1019.34,670.49 1020.06,670.37 1021.12,671.64 C1024.98,676.29 1030.00,675.64 1030.00,670.49 C1030.00,668.64 1029.55,666.84 1029.00,666.50 C1028.45,666.16 1027.99,662.42 1027.98,658.19 C1027.95,647.81 1025.75,642.92 1020.10,640.66 C1014.95,638.60 1010.83,638.56 1004.22,640.53 C998.17,642.32 997.59,643.00 999.15,646.43 C1000.50,649.39 1000.64,649.42 1004.00,647.50 C1005.38,646.71 1008.61,646.05 1011.19,646.04 C1014.93,646.01 1016.20,646.45 1017.44,648.22 C1020.52,652.61 1019.60,653.67 1013.11,653.20 C1002.90,652.46 996.00,656.49 996.00,663.18 C996.00,672.98 1006.36,677.92 1015.70,672.57 ZM 1059.50 673.11 C1061.70,672.09 1064.58,670.09 1065.90,668.66 L 1068.29 666.06 L 1065.58 665.03 C1061.74,663.57 1058.45,663.75 1057.00,665.50 C1054.85,668.09 1049.21,667.36 1045.92,664.08 C1043.63,661.78 1043.00,660.26 1043.00,657.00 C1043.00,649.28 1051.98,643.96 1057.13,648.62 C1058.43,649.79 1059.89,650.06 1062.42,649.58 C1067.08,648.71 1067.69,647.38 1064.85,644.30 C1055.42,634.06 1036.49,639.85 1034.43,653.60 C1033.15,662.14 1037.05,669.76 1044.42,673.10 C1049.59,675.45 1054.42,675.46 1059.50,673.11 ZM 278.51 668.00 L 280.61 662.50 L 288.44 662.68 C292.74,662.79 296.60,663.24 297.00,663.68 C297.41,664.13 298.53,666.64 299.50,669.25 C301.24,673.92 301.34,674.00 305.64,674.00 C308.04,674.00 310.00,673.59 310.00,673.09 C310.00,672.25 306.61,662.81 297.19,637.50 L 293.48 627.50 L 289.40 627.20 C286.93,627.02 284.91,627.41 284.28,628.20 C283.70,628.92 280.96,635.80 278.18,643.50 C275.41,651.20 271.75,661.24 270.06,665.81 L 266.98 674.11 L 271.70 673.81 L 276.41 673.50 L 278.51 668.00 ZM 399.00 663.02 C399.00,652.39 399.08,651.99 401.53,650.39 C402.91,649.48 405.50,648.44 407.28,648.08 C410.23,647.48 410.53,647.07 410.81,643.21 C411.05,639.87 410.78,639.00 409.49,639.00 C407.24,639.00 403.99,640.78 400.75,643.81 L 398.00 646.37 L 398.00 643.19 C398.00,640.14 397.83,640.00 394.00,640.00 L 390.00 640.00 L 390.00 657.00 L 390.00 674.00 L 394.50 674.00 L 399.00 674.00 L 399.00 663.02 ZM 435.08 671.85 C436.09,669.96 438.32,663.99 445.02,645.25 L 446.89 640.00 L 442.61 640.00 L 438.33 640.00 L 434.59 651.99 C432.53,658.58 430.49,664.20 430.06,664.46 C429.63,664.73 427.55,659.33 425.43,652.47 L 421.58 640.00 L 417.29 640.00 C414.52,640.00 413.00,640.44 413.01,641.25 C413.01,642.47 423.54,671.44 424.59,673.15 C424.88,673.62 427.10,674.00 429.52,674.00 C433.01,674.00 434.17,673.55 435.08,671.85 ZM 614.00 666.63 L 614.00 659.26 L 621.57 658.78 C626.98,658.43 629.89,657.73 631.82,656.30 C641.49,649.14 641.43,636.82 631.68,629.59 C629.18,627.74 627.47,627.50 616.68,627.50 L 604.50 627.50 L 604.34 648.00 C604.12,674.64 603.99,674.00 609.58,674.00 L 614.00 674.00 L 614.00 666.63 ZM 654.00 663.07 C654.00,652.46 654.08,652.09 656.63,650.07 C658.08,648.93 660.56,648.00 662.13,648.00 C664.86,648.00 665.00,647.79 665.00,643.50 C665.00,639.88 664.66,639.00 663.25,639.01 C661.12,639.01 656.49,641.97 654.52,644.58 C653.15,646.39 653.06,646.31 653.03,643.25 C653.00,640.13 652.84,640.00 649.00,640.00 L 645.00 640.00 L 645.00 657.00 L 645.00 674.00 L 649.50 674.00 L 654.00 674.00 L 654.00 663.07 ZM 967.73 663.82 L 967.17 653.63 L 970.48 650.32 C974.41,646.39 978.17,645.98 980.44,649.22 C981.63,650.92 982.00,654.13 982.00,662.72 L 982.00 674.00 L 986.50 674.00 L 991.00 674.00 L 991.00 661.47 C991.00,647.87 989.92,643.46 985.88,640.63 C981.69,637.69 973.86,638.92 969.25,643.24 L 967.00 645.35 L 967.00 642.67 C967.00,640.22 966.67,640.00 963.00,640.00 L 959.00 640.00 L 959.00 657.00 L 959.00 674.00 L 963.65 674.00 L 968.29 674.00 L 967.73 663.82 ZM 719.00 630.50 L 719.00 626.00 L 714.50 626.00 L 710.00 626.00 L 710.00 630.50 L 710.00 635.00 L 714.50 635.00 L 719.00 635.00 L 719.00 630.50 ZM 560.50 581.88 C565.71,580.43 572.43,573.71 573.88,568.50 C575.53,562.55 575.24,559.05 572.63,553.50 C569.82,547.52 567.99,545.77 561.56,542.92 C555.95,540.44 550.37,540.75 544.25,543.87 C539.53,546.28 537.63,548.38 535.08,554.02 C532.53,559.64 532.47,564.61 534.89,570.17 C539.29,580.30 549.45,584.95 560.50,581.88 ZM 804.10 581.87 C808.83,580.29 815.50,573.60 816.86,569.06 C821.13,554.82 812.06,541.96 797.79,542.02 C784.70,542.08 776.13,551.47 777.21,564.55 C778.28,577.39 791.66,586.01 804.10,581.87 ZM 961.97 581.58 C989.72,576.67 1007.99,553.50 1005.41,526.50 C1003.43,505.85 991.65,491.36 970.12,483.12 C963.57,480.62 963.09,480.58 926.00,480.05 C888.51,479.50 888.50,479.50 883.50,477.00 C871.64,471.07 870.50,454.69 881.43,447.27 L 885.50 444.50 L 942.50 443.96 C973.85,443.67 999.62,443.33 999.77,443.21 C999.93,443.10 999.93,435.69 999.77,426.75 L 999.50 410.50 L 945.00 410.23 C898.46,409.99 889.34,410.18 882.59,411.54 C864.54,415.16 850.12,426.78 843.56,443.00 C840.33,450.97 839.15,464.64 840.94,473.22 C843.68,486.37 852.76,498.46 865.00,505.24 C876.95,511.87 879.37,512.20 919.91,512.73 C959.70,513.25 961.26,513.47 967.18,519.44 C972.31,524.60 972.61,535.53 967.80,542.28 C966.64,543.91 963.62,546.21 961.09,547.38 C956.62,549.44 954.96,549.51 899.00,550.00 L 841.50 550.50 L 841.22 565.46 C841.07,573.68 841.14,580.93 841.38,581.56 C841.71,582.40 856.75,582.76 897.66,582.89 C943.49,583.05 955.02,582.82 961.97,581.58 ZM 1044.59 581.53 C1049.99,579.93 1056.14,574.47 1057.94,569.68 C1060.55,562.76 1058.14,552.14 1052.87,547.30 C1051.55,546.09 1048.29,544.13 1045.62,542.95 C1037.12,539.19 1026.73,542.38 1021.27,550.42 C1018.85,553.99 1018.50,555.45 1018.50,562.09 C1018.50,568.72 1018.84,570.17 1021.23,573.61 C1024.01,577.63 1028.11,580.59 1032.84,582.03 C1036.86,583.24 1039.16,583.14 1044.59,581.53 ZM 339.21 559.00 C346.41,546.62 355.31,531.33 358.99,525.00 C388.59,474.13 400.47,454.06 401.00,454.04 C401.71,454.02 433.16,507.89 433.75,510.14 C434.21,511.92 433.12,512.00 409.24,512.00 C390.45,512.00 384.00,512.31 383.24,513.25 C381.50,515.42 366.00,542.33 366.00,543.18 C366.00,543.63 385.76,544.00 409.90,544.00 L 453.81 544.00 L 456.53 548.75 C458.02,551.36 463.08,559.91 467.77,567.75 L 476.30 582.00 L 497.15 582.00 C508.62,582.00 518.00,581.75 518.00,581.46 C518.00,581.16 509.30,566.42 498.66,548.71 C488.02,530.99 466.57,495.12 451.00,469.00 C435.43,442.88 421.07,419.77 419.09,417.67 C413.69,411.90 408.61,409.58 401.44,409.61 C394.34,409.65 388.05,412.28 383.26,417.24 C380.68,419.91 285.94,576.38 284.27,580.73 C283.87,581.79 287.80,581.99 304.94,581.77 L 326.11 581.50 L 339.21 559.00 ZM 639.00 513.00 L 639.50 444.50 L 681.50 444.50 L 723.50 444.50 L 728.50 447.16 C738.76,452.61 744.00,461.90 744.00,474.62 C744.00,489.50 739.02,499.12 728.53,504.49 L 722.65 507.50 L 688.80 507.79 L 654.95 508.08 L 655.23 524.29 L 655.50 540.50 L 688.75 540.76 C726.31,541.06 731.20,540.50 743.92,534.46 C749.75,531.69 753.19,529.09 759.45,522.70 C767.77,514.23 770.95,508.98 775.03,497.00 C778.16,487.81 778.86,470.98 776.56,460.61 C771.34,437.17 753.68,418.67 731.00,412.90 C726.59,411.78 713.62,411.50 665.50,411.50 L 605.50 411.50 L 605.24 496.77 L 604.99 582.05 L 621.74 581.77 L 638.50 581.50 L 639.00 513.00 ZM 584.32 327.25 C593.36,316.79 610.47,299.85 623.62,288.34 C631.69,281.28 654.87,262.41 657.82,260.50 C718.68,221.04 744.23,207.00 783.00,191.72 C845.43,167.11 900.68,155.80 970.13,153.41 C998.23,152.44 998.00,151.60 966.75,141.22 C924.87,127.30 906.45,122.51 875.47,117.51 C807.76,106.58 742.90,107.72 674.00,121.07 C668.22,122.19 661.25,123.54 658.50,124.08 C653.47,125.06 651.70,125.55 627.00,132.87 C619.58,135.06 601.62,141.64 587.10,147.48 C557.78,159.27 557.00,159.62 557.00,161.15 C557.00,163.62 566.31,175.06 582.40,192.36 C587.95,198.34 593.55,204.70 594.83,206.50 C597.44,210.17 597.51,209.74 592.12,225.00 C581.53,255.03 576.10,282.61 573.92,317.36 C572.88,334.06 573.03,337.00 574.91,337.00 C575.45,337.00 579.68,332.61 584.32,327.25 ZM 937.56 112.10 C936.50,110.38 904.33,92.53 882.50,81.55 C857.44,68.95 833.39,59.62 805.22,51.59 C785.07,45.84 751.03,38.15 741.97,37.29 L 736.43 36.76 L 726.47 44.52 C704.23,61.84 677.83,86.16 679.48,87.81 C680.30,88.64 686.57,88.22 709.50,85.81 C735.81,83.04 783.42,82.84 807.50,85.41 C853.79,90.33 894.00,98.34 923.00,108.41 C936.15,112.98 938.47,113.57 937.56,112.10 ZM 358.00 652.07 C358.00,649.18 362.69,646.00 366.96,646.00 C370.94,646.00 375.00,649.19 375.00,652.31 C375.00,653.76 373.80,654.00 366.50,654.00 C358.77,654.00 358.00,653.82 358.00,652.07 ZM 461.06 665.25 C456.33,661.41 456.82,650.77 461.85,648.08 C468.30,644.63 475.00,648.85 475.00,656.38 C475.00,664.97 467.00,670.06 461.06,665.25 ZM 517.36 665.54 C509.66,660.15 513.37,647.00 522.59,647.00 C527.93,647.00 531.00,650.83 531.00,657.47 C531.00,662.10 530.63,663.15 528.37,664.93 C525.29,667.34 520.33,667.62 517.36,665.54 ZM 556.00 652.45 C556.00,649.43 560.66,646.00 564.78,646.00 C568.94,646.00 573.00,649.12 573.00,652.31 C573.00,653.76 571.80,654.00 564.50,654.00 C557.50,654.00 556.00,653.73 556.00,652.45 ZM 679.92 664.08 C676.58,660.74 676.03,655.78 678.46,651.07 C680.14,647.84 681.79,647.00 686.51,647.00 C691.80,647.00 696.06,653.65 694.57,659.59 C692.74,666.85 685.06,669.21 679.92,664.08 ZM 734.52 651.75 C735.89,647.04 742.11,644.57 747.46,646.62 C748.86,647.16 752.00,651.88 752.00,653.45 C752.00,653.75 747.92,654.00 742.93,654.00 C734.00,654.00 733.88,653.97 734.52,651.75 ZM 800.48 663.80 C798.14,661.01 797.85,659.94 798.26,655.61 C798.82,649.87 801.45,647.00 806.18,647.00 C810.24,647.00 812.69,648.51 814.58,652.15 C819.74,662.14 807.56,672.21 800.48,663.80 ZM 927.00 652.04 C927.00,646.30 936.94,643.85 941.55,648.45 C946.09,653.00 945.00,654.00 935.50,654.00 C927.72,654.00 927.00,653.83 927.00,652.04 ZM 1005.65 666.17 C1003.49,663.78 1003.57,662.43 1006.00,660.00 C1007.99,658.01 1013.96,657.28 1017.42,658.61 C1019.63,659.45 1019.39,663.61 1017.00,666.00 C1014.39,668.61 1007.95,668.71 1005.65,666.17 ZM 283.00 654.77 C283.00,652.18 288.34,637.95 289.03,638.71 C289.43,639.14 290.77,642.65 292.02,646.50 C293.27,650.35 294.50,654.06 294.75,654.75 C295.09,655.66 293.57,656.00 289.11,656.00 C284.94,656.00 283.00,655.61 283.00,654.77 ZM 614.00 642.50 L 614.00 635.00 L 619.55 635.00 C624.10,635.00 625.53,635.44 627.55,637.45 C630.38,640.29 630.74,644.49 628.44,647.78 C627.11,649.68 625.97,650.00 620.44,650.00 L 614.00 650.00 L 614.00 642.50 Z" fill="rgb(254,254,254)"/>
</g>
</svg>